Coordinates
version=1
nRows=14
nColumns=24
inDegrees=yes

Units are S.I. units (second, meters, Newtons, ...)
Angles are in degrees.

endheader
time	pelvis_tilt	pelvis_list	pelvis_rotation	pelvis_tx	pelvis_ty	pelvis_tz	hip_flexion_r	hip_adduction_r	hip_rotation_r	knee_angle_r	ankle_angle_r	subtalar_angle_r	mtp_angle_r	hip_flexion_l	hip_adduction_l	hip_rotation_l	knee_angle_l	ankle_angle_l	subtalar_angle_l	mtp_angle_l	lumbar_extension	lumbar_bending	lumbar_rotation
      3.68500000	    -19.51500843	     -0.43751862	      6.43153797	     -1.85039661	     -0.03290385	     -0.27634559	     45.99006204	     -0.23382682	      3.45208698	     -9.24953527	     -3.05644450	     -5.84250589	      9.59257287	     -0.63302432	      3.02868308	     14.42134006	    -12.01945359	     22.44890342	     19.47612881	    -60.75016284	     13.74273509	     -1.97477702	     -8.73979765
      3.69000000	    -19.52397129	     -0.54465534	      6.41833992	     -1.84174955	     -0.03425967	     -0.27569270	     46.21271859	     -0.00649877	      3.43513987	    -10.36246268	     -3.40588708	     -6.27993302	      9.81788981	     -0.72932353	      2.80774119	     13.95829696	    -12.89257987	     22.26088617	     20.40538322	    -60.08945929	     13.90402166	     -1.88905332	     -8.78747005
      3.69500000	    -19.41804592	     -0.58770338	      6.42636931	     -1.83315560	     -0.03540984	     -0.27516842	     46.27982706	      0.14861188	      3.44298979	    -11.42261391	     -4.15405978	     -6.84301717	     11.02856819	     -0.99252198	      2.67191239	     13.82812268	    -13.66878869	     21.54142129	     20.97496952	    -57.63062284	     13.91336527	     -1.84175518	     -8.89115833
      3.70000000	    -19.37941167	     -0.66127215	      6.43717732	     -1.82446063	     -0.03659242	     -0.27457145	     46.43537596	      0.33263307	      3.36887346	    -12.60801642	     -4.79394101	     -7.10390420	     11.08226371	     -1.09977954	      2.49588869	     13.46514429	    -14.59371272	     21.21478498	     21.72594638	    -57.47596512	     14.01077799	     -1.78144337	     -9.00053194
      3.70500000	    -19.31854522	     -0.77251597	      6.36566178	     -1.81562883	     -0.03767196	     -0.27385670	     46.53436385	      0.61622266	      3.33437392	    -13.72778783	     -5.80695855	     -7.47669544	     11.23511871	     -1.21201630	      2.26380777	     12.92168207	    -15.53941782	     20.74820970	     22.52334345	    -57.12446307	     14.10124123	     -1.65556913	     -9.00476815
      3.71000000	    -19.28128256	     -0.90434998	      6.31154341	     -1.80679299	     -0.03871640	     -0.27314569	     46.66900399	      0.90167721	      3.24705845	    -14.86963077	     -6.98580776	     -7.86236553	     11.35567265	     -1.24710728	      2.01020714	     12.37336469	    -16.55410292	     20.20231196	     23.32151227	    -56.71426367	     14.21590814	     -1.51696351	     -9.03307664
      3.71500000	    -19.26142142	     -1.04497098	      6.21160033	     -1.79793119	     -0.03966001	     -0.27239188	     46.81542796	      1.22290139	      3.19657582	    -15.98702972	     -8.32887605	     -8.23943925	     11.38187886	     -1.22587949	      1.74105703	     11.72194805	    -17.60728674	     19.49531706	     24.13235334	    -56.22656866	     14.34936696	     -1.35458041	     -8.96922067
      3.72000000	    -19.17003804	     -1.25967262	      6.10334479	     -1.78897017	     -0.04037558	     -0.27173435	     46.84760021	      1.60450486	      3.08675012	    -16.99598546	     -9.93706320	     -8.84860424	     12.14497563	     -1.30748160	      1.39225574	     11.17287515	    -18.52456559	     17.63957795	     24.90083077	    -50.26102872	     14.42350526	     -1.09064216	     -8.92963875
      3.72500000	    -19.18581265	     -1.38849632	      5.93431069	     -1.78019630	     -0.04115825	     -0.27083834	     47.08317489	      1.98984922	      3.23016451	    -18.29806722	    -10.70361613	     -8.87515556	     10.17838349	     -1.13315597	      1.11152897	     10.26309223	    -19.68179445	     16.24824811	     25.82914999	    -47.58159712	     14.57105848	     -0.92871340	     -8.77433660
      3.73000000	    -19.31342373	     -1.54409682	      5.83447567	     -1.77150042	     -0.04190314	     -0.27007327	     47.41191489	      2.32979381	      3.29864283	    -19.47684554	    -11.79759938	     -9.38173407	      9.80906752	     -0.75286360	      0.81298225	      9.50165678	    -20.95560263	     15.14745653	     26.66153740	    -47.36840613	     14.83463162	     -0.76452636	     -8.69082384
      3.73500000	    -19.23832421	     -1.85355635	      5.62796500	     -1.76247719	     -0.04226584	     -0.26912608	     47.48317299	      2.95975022	      3.53503816	    -20.84003351	    -11.52892403	     -9.22687333	      5.27827543	     -0.62942771	      0.26533210	      8.37679661	    -21.96734548	     12.13462334	     27.71203360	    -38.21253608	     14.92824294	     -0.39562753	     -8.52622725
      3.74000000	    -19.34201993	     -2.04999966	      5.49464579	     -1.75372450	     -0.04271423	     -0.26833597	     47.69108167	      3.41218782	      3.82532774	    -21.90253598	    -12.29400201	    -10.12859560	      5.62184990	     -0.25181878	     -0.13198391	      7.42093144	    -22.91435880	      8.45212789	     28.58336604	    -27.03826415	     15.17717965	     -0.17725889	     -8.40639505
      3.74500000	    -19.54603621	     -2.26401517	      5.40895946	     -1.74502729	     -0.04316605	     -0.26753052	     48.03686384	      3.88086969	      4.08720837	    -23.22022875	    -11.84770724	    -10.40279146	      2.87166652	      0.33886501	     -0.55679152	      6.53571723	    -23.99997257	      5.16072704	     29.31721545	    -19.15091745	     15.52826869	      0.02130182	     -8.34775206
      3.75000000	    -19.44790975	     -2.57070692	      5.21015081	     -1.73619446	     -0.04319523	     -0.26652338	     47.96160633	      4.59556347	      4.46550820	    -24.41918237	    -11.12884225	    -10.84192019	     -0.20190682	      0.60859243	     -1.16603136	      5.46784356	    -25.05434768	      1.91494152	     30.05674539	    -12.71113247	     15.56262750	      0.37256785	     -8.14745494
